<svg width="14" height="18" viewBox="0 0 14 18" fill="none" xmlns="http://www.w3.org/2000/svg">
<path d="M12.0693 4.22368H9.52637V1.68079L12.0693 4.22368ZM7.46387 0.973679V4.72368C7.46387 5.59655 8.17165 6.28618 9.05625 6.28618H12.7764V15.8799C12.7764 16.484 12.2867 16.9737 11.6826 16.9737H2.12012C1.51611 16.9737 1.02637 16.4837 1.02637 15.8799V2.06743C1.02637 1.46336 1.51604 0.973679 2.12012 0.973679H7.46387ZM4.24512 14.7862H9.55762C10.1259 14.7862 10.5889 14.3233 10.5889 13.7549C10.5889 13.1853 10.1271 12.7237 9.55762 12.7237H4.24512C3.67679 12.7237 3.21387 13.1866 3.21387 13.7549C3.21387 14.3233 3.67679 14.7862 4.24512 14.7862ZM4.24512 12.6612H9.55762C10.1259 12.6612 10.5889 12.1983 10.5889 11.6299C10.5889 11.0603 10.1271 10.5987 9.55762 10.5987H4.24512C3.67679 10.5987 3.21387 11.0616 3.21387 11.6299C3.21387 12.1983 3.67679 12.6612 4.24512 12.6612ZM9.55762 10.5362C10.1259 10.5362 10.5889 10.0733 10.5889 9.50493C10.5889 8.9366 10.1259 8.47368 9.55762 8.47368H4.24512C3.67679 8.47368 3.21387 8.9366 3.21387 9.50493C3.21387 10.0733 3.67679 10.5362 4.24512 10.5362H9.55762Z" stroke="white"/>
</svg>
