<svg width="15" height="17" viewBox="0 0 15 17" fill="none" xmlns="http://www.w3.org/2000/svg">
<path d="M13.5264 14.6549V14.9395L13.771 15.0848C13.9348 15.1821 14.0264 15.336 14.0264 15.5018C14.0264 15.7405 13.8117 15.9737 13.5264 15.9737H3.52637C2.14563 15.9737 1.02637 14.8544 1.02637 13.4737V3.47368C1.02637 2.09295 2.14563 0.973679 3.52637 0.973679H13.0264C13.5784 0.973679 14.0264 1.42145 14.0264 1.97368V10.9737C14.0264 11.2636 13.9015 11.5339 13.6757 11.756L13.5264 11.9029V12.1124V14.6549ZM12.5264 14.9737H13.0264V14.4737V12.4737V11.9737H12.5264H3.52637C2.69804 11.9737 2.02637 12.6453 2.02637 13.4737C2.02637 14.302 2.69804 14.9737 3.52637 14.9737H12.5264ZM10.9982 3.97368H4.99824C4.45676 3.97368 4.02637 4.44137 4.02637 4.97368C4.02637 5.50599 4.45676 5.97368 4.99824 5.97368C4.45676 5.97368 4.02637 6.44137 4.02637 6.97368C4.02637 7.50599 4.45676 7.97368 4.99824 7.97368H11.0264C11.5775 7.97368 12.0264 7.52482 12.0264 6.97368C12.0264 6.40477 11.5594 5.97368 10.9982 5.97368H11.0264C11.5775 5.97368 12.0264 5.52482 12.0264 4.97368C12.0264 4.40477 11.5594 3.97368 10.9982 3.97368Z" stroke="white"/>
</svg>
