<svg width="25" height="25" viewBox="0 0 25 25" fill="none" xmlns="http://www.w3.org/2000/svg">
<path d="M22.5013 0H2.25013C1.00693 0 0 1.00693 0 2.25013V22.5013C0 23.7445 1.00693 24.7514 2.25013 24.7514H22.5013C23.7445 24.7514 24.7514 23.7445 24.7514 22.5013V2.25013C24.7514 1.00693 23.7445 0 22.5013 0ZM7.8237 20.2512H4.50476V9.57205H7.8237V20.2512ZM6.13048 8.04533C5.06054 8.04533 4.19536 7.17791 4.19536 6.11022C4.19536 5.04254 5.06166 4.17624 6.13048 4.17624C7.19704 4.17624 8.06446 5.04366 8.06446 6.11022C8.06446 7.17791 7.19704 8.04533 6.13048 8.04533ZM20.2557 20.2512H16.939V15.0579C16.939 13.8192 16.9165 12.2261 15.2142 12.2261C13.4873 12.2261 13.2218 13.575 13.2218 14.9679V20.2512H9.90507V9.57205H13.089V11.0313H13.134C13.5773 10.192 14.6596 9.30653 16.2741 9.30653C19.6346 9.30653 20.2557 11.5184 20.2557 14.3941V20.2512Z" fill="white"/>
</svg>
