<svg width="17" height="15" viewBox="0 0 17 15" fill="none" xmlns="http://www.w3.org/2000/svg">
<path d="M16.0244 7.51024L16.0207 7.54046V7.5709C16.0207 7.7867 15.836 7.96257 15.6318 7.96257H14.7429H14.2407L14.2429 8.46475L14.2624 12.9098C14.2624 12.9101 14.2624 12.9105 14.2624 12.9108C14.2623 12.9637 14.2586 13.0161 14.2515 13.0796L14.2485 13.1071V13.1348V13.5848C14.2485 13.9225 13.9751 14.1959 13.6374 14.1959H13.2454C13.2137 14.1893 13.1615 14.1812 13.0978 14.1848C13.035 14.1814 12.9845 14.1887 12.955 14.194C12.9514 14.1946 12.9479 14.1953 12.9446 14.1959H11.4151C11.0774 14.1959 10.804 13.9225 10.804 13.5848V11.1403C10.804 10.3725 10.1829 9.75146 9.41513 9.75146H7.63736C6.86955 9.75146 6.24847 10.3725 6.24847 11.1403V13.5848C6.24847 13.9225 5.9751 14.1959 5.63736 14.1959H4.08458C4.06234 14.1959 4.0373 14.1944 3.99284 14.1915L3.95542 14.189L3.91805 14.1921C3.88121 14.1951 3.86863 14.1959 3.85958 14.1959H3.41513C3.07758 14.1959 2.80402 13.9225 2.80402 13.5848V10.4737C2.80402 10.4586 2.80456 10.442 2.80542 10.4292L2.80652 10.4125V10.3959V8.46257V7.96257H2.30652H1.41652C1.19316 7.96257 1.02625 7.79609 1.02625 7.5709C1.02625 7.45312 1.05792 7.36198 1.14747 7.2684L8.25478 1.07326L8.26788 1.06184L8.28015 1.04955C8.31448 1.01515 8.34471 1.00011 8.37574 0.990783C8.4128 0.979642 8.46162 0.973679 8.53736 0.973679C8.64558 0.973679 8.74302 1.00568 8.80139 1.05112L15.885 7.27972L15.8859 7.28052C16.0295 7.40622 16.0284 7.47715 16.0244 7.51024Z" stroke="white"/>
</svg>
