<svg width="29" height="29" viewBox="0 0 29 29" fill="none" xmlns="http://www.w3.org/2000/svg">
<path d="M8.33333 0.625C4.08296 0.625 0.625 4.08296 0.625 8.33333V20.6667C0.625 24.917 4.08296 28.375 8.33333 28.375H20.6667C24.917 28.375 28.375 24.917 28.375 20.6667V8.33333C28.375 4.08296 24.917 0.625 20.6667 0.625H8.33333ZM8.33333 3.70833H20.6667C23.2166 3.70833 25.2917 5.78342 25.2917 8.33333V20.6667C25.2917 23.2166 23.2166 25.2917 20.6667 25.2917H8.33333C5.78342 25.2917 3.70833 23.2166 3.70833 20.6667V8.33333C3.70833 5.78342 5.78342 3.70833 8.33333 3.70833ZM22.2083 5.25C21.7995 5.25 21.4073 5.41243 21.1182 5.70154C20.8291 5.99066 20.6667 6.38279 20.6667 6.79167C20.6667 7.20054 20.8291 7.59267 21.1182 7.88179C21.4073 8.17091 21.7995 8.33333 22.2083 8.33333C22.6172 8.33333 23.0093 8.17091 23.2985 7.88179C23.5876 7.59267 23.75 7.20054 23.75 6.79167C23.75 6.38279 23.5876 5.99066 23.2985 5.70154C23.0093 5.41243 22.6172 5.25 22.2083 5.25ZM14.5 6.79167C10.2496 6.79167 6.79167 10.2496 6.79167 14.5C6.79167 18.7504 10.2496 22.2083 14.5 22.2083C18.7504 22.2083 22.2083 18.7504 22.2083 14.5C22.2083 10.2496 18.7504 6.79167 14.5 6.79167ZM14.5 9.875C17.0499 9.875 19.125 11.9501 19.125 14.5C19.125 17.0499 17.0499 19.125 14.5 19.125C11.9501 19.125 9.875 17.0499 9.875 14.5C9.875 11.9501 11.9501 9.875 14.5 9.875Z" fill="white"/>
</svg>
