<svg width="31" height="25" viewBox="0 0 31 25" fill="none" xmlns="http://www.w3.org/2000/svg">
<path d="M30 9.53213V21.2188C30 22.2716 29.1466 23.125 28.0938 23.125H2.90625C1.85357 23.125 1 22.2711 1 21.2188V9.53104L12.0299 18.1077C13.0601 18.9105 14.2775 19.3125 15.5 19.3125C16.7187 19.3125 17.9392 18.9131 18.9694 18.1168L18.972 18.1148L30 9.53213ZM14.4485 15.0046L14.4484 15.0045L1.60046 5.00827C1.60043 5.00825 1.60041 5.00823 1.60038 5.00821C1.22136 4.71321 1 4.25969 1 3.78125C1 2.72844 1.85344 1.875 2.90625 1.875H28.0938C29.1461 1.875 30 2.72857 30 3.78125C30 4.21634 29.7611 4.69213 29.3817 5.02401L16.554 15.0045L16.5539 15.0046C15.9348 15.4864 15.0676 15.4864 14.4485 15.0046Z" stroke="white" stroke-width="2"/>
</svg>
