<svg width="28" height="27" viewBox="0 0 28 27" fill="none" xmlns="http://www.w3.org/2000/svg">
<path d="M14.0633 0.289551C6.60747 0.289551 0.5625 6.33452 0.5625 13.7903C0.5625 20.1166 4.91875 25.41 10.7916 26.8748C10.7286 26.6926 10.6881 26.481 10.6881 26.2189V23.9114C10.1402 23.9114 9.22212 23.9114 8.99148 23.9114C8.0678 23.9114 7.24651 23.5143 6.84823 22.7762C6.40608 21.956 6.32958 20.7016 5.23377 19.9343C4.90862 19.6789 5.15614 19.3875 5.53078 19.4269C6.2227 19.6227 6.79648 20.0974 7.33651 20.8017C7.87429 21.5071 8.12743 21.6669 9.13211 21.6669C9.61927 21.6669 10.3483 21.6388 11.0346 21.5308C11.4036 20.5936 12.0415 19.7307 12.8212 19.3234C8.32544 18.861 6.17995 16.6244 6.17995 13.5878C6.17995 12.2805 6.73685 11.0159 7.68303 9.95048C7.37251 8.89292 6.98212 6.73617 7.80229 5.91487C9.82515 5.91487 11.0481 7.2267 11.3417 7.58109C12.3498 7.2357 13.4569 7.03994 14.6202 7.03994C15.7857 7.03994 16.8973 7.2357 17.9076 7.58334C18.1979 7.2312 19.422 5.91487 21.4493 5.91487C22.2729 6.73729 21.878 8.90304 21.5641 9.95835C22.5046 11.0215 23.0582 12.2827 23.0582 13.5878C23.0582 16.6221 20.916 18.8576 16.427 19.3223C17.6624 19.9669 18.5635 21.7783 18.5635 23.143V26.2189C18.5635 26.3359 18.5377 26.4203 18.5242 26.5204C23.785 24.6764 27.564 19.6812 27.564 13.7903C27.564 6.33452 21.5191 0.289551 14.0633 0.289551Z" fill="white"/>
</svg>
