<svg width="32" height="32" viewBox="0 0 32 32" fill="none" xmlns="http://www.w3.org/2000/svg">
<path d="M16.0186 0.166748C7.3008 0.166748 0.203932 7.25751 0.200765 15.9753C0.199182 18.762 0.929073 21.4825 2.31291 23.8796L0.166748 31.8334L8.45142 29.8759C10.7615 31.1362 13.362 31.7978 16.0094 31.7994H16.0155C24.7318 31.7994 31.8256 24.7071 31.8303 15.9908C31.8335 11.7649 30.1902 7.79166 27.204 4.80233C24.2179 1.81458 20.2493 0.168331 16.0186 0.166748ZM16.0155 3.33341C19.3975 3.335 22.5758 4.65359 24.9651 7.04126C27.3543 9.43209 28.6668 12.6089 28.6637 15.9877C28.6605 22.9607 22.9886 28.6327 16.0125 28.6327C13.9019 28.6311 11.8112 28.1012 9.96981 27.0958L8.90291 26.5144L7.72469 26.7927L4.6075 27.5287L5.36825 24.7022L5.71151 23.4343L5.05591 22.2963C3.95074 20.3836 3.36585 18.1968 3.36743 15.9753C3.3706 9.00551 9.04413 3.33341 16.0155 3.33341ZM10.4213 8.67716C10.1569 8.67716 9.72936 8.77612 9.36678 9.17196C9.0042 9.56621 7.98136 10.5211 7.98136 12.4654C7.98136 14.4097 9.39771 16.2892 9.59562 16.5536C9.79195 16.8165 12.3295 20.9325 16.3464 22.5159C19.6841 23.8316 20.362 23.572 21.0872 23.5055C21.8123 23.4405 23.4266 22.5514 23.7559 21.6283C24.0853 20.7053 24.086 19.9112 23.9879 19.7481C23.8897 19.5835 23.6261 19.4853 23.2302 19.2874C22.836 19.0894 20.8931 18.1354 20.5305 18.004C20.1679 17.8726 19.9027 17.8061 19.6399 18.2019C19.3771 18.5977 18.6217 19.4853 18.3905 19.7481C18.1594 20.0125 17.9298 20.0481 17.5339 19.8502C17.1381 19.6507 15.8654 19.2323 14.3549 17.8865C13.1801 16.8399 12.3873 15.5486 12.1562 15.1528C11.9266 14.7585 12.1345 14.542 12.3324 14.3456C12.5098 14.1683 12.7252 13.8841 12.9231 13.6529C13.1194 13.4217 13.1875 13.2571 13.3189 12.9942C13.4503 12.7314 13.3831 12.4994 13.2849 12.3015C13.1867 12.1036 12.418 10.152 12.0665 9.36987C11.7704 8.71279 11.4577 8.69753 11.1759 8.68644C10.9463 8.67694 10.6841 8.67716 10.4213 8.67716Z" fill="white"/>
</svg>
